{"glyphs":{"a":{"x_min":0,"x_max":630,"ha":630,"o":"m 430 640 l 598 0 l 458 0 l 420 144 l 206 144 l 169 1 l 29 1 l 195 639 z m 313 552 l 241 279 l 242 279 l 385 279 z"},"L":{"x_min":0,"x_max":485,"ha":485,"o":"m 447 0 l 174 0 l 174 0 l 39 0 l 39 640 l 174 640 l 174 135 l 447 135 z"},"J":{"x_min":0,"x_max":395,"ha":395,"o":"m 361 201 q 362 186 359 167 q 356 148 350 132 q 339 97 312 68 q 286 38 254 24 q 222 8 190 4 q 158 0 131 0 l 33 0 l 33 138 l 131 138 q 173 138 194 148 q 205 153 210 159 q 215 165 220 176 q 222 183 222 187 q 223 191 223 201 l 223 640 l 361 640 l 361 201 z"},"V":{"x_min":0,"x_max":620,"ha":620,"o":"m 596 640 l 400 1 l 217 1 l 22 640 l 164 640 l 309 167 l 454 640 z"},"S":{"x_min":0,"x_max":524,"ha":524,"o":"m 299 388 q 336 389 370 374 q 404 358 430 331 q 455 304 470 269 q 485 234 484 195 q 485 156 470 120 q 455 85 430 58 q 404 32 370 16 q 336 1 299 2 l 40 2 l 40 136 l 299 136 q 322 135 339 153 q 356 171 355 195 q 356 218 338 236 q 321 254 299 254 l 223 254 q 186 253 152 268 q 118 284 92 311 q 67 338 52 373 q 37 408 38 447 q 37 486 52 521 q 67 556 92 583 q 118 610 152 626 q 186 641 223 640 l 436 640 l 436 506 l 223 506 q 212 506 202 502 q 191 497 184 488 q 176 480 172 470 q 167 459 167 447 q 166 423 183 405 q 200 387 223 388 l 299 388 z"},"Z":{"x_min":0,"x_max":536,"ha":536,"o":"m 496 1 l 39 1 l 39 137 l 39 137 l 39 137 l 308 503 l 38 503 l 38 640 l 479 640 l 479 503 l 479 503 l 479 503 l 209 137 l 496 137 z"},"x":{"x_min":0,"x_max":641,"ha":641,"o":"m 601 0 l 442 0 l 316 199 l 191 0 l 31 0 l 236 326 l 39 640 l 198 640 l 316 452 l 434 640 l 594 640 l 396 325 z"},"v":{"x_min":0,"x_max":620,"ha":620,"o":"m 596 640 l 400 1 l 217 1 l 22 640 l 164 640 l 309 167 l 454 640 z"},"O":{"x_min":0,"x_max":625,"ha":625,"o":"m 313 640 q 379 640 434 612 q 489 584 528 538 q 568 492 589 435 q 610 378 608 320 q 610 263 589 206 q 568 148 528 102 q 489 57 434 28 q 379 0 313 0 q 247 0 192 28 q 136 57 96 102 q 57 148 36 206 q 15 263 17 320 q 15 378 36 435 q 57 492 96 538 q 136 584 192 612 q 247 640 313 640 z m 149 320 q 148 283 161 248 q 174 214 196 188 q 219 162 249 146 q 279 131 313 132 q 346 131 376 146 q 407 162 430 188 q 452 214 465 248 q 478 283 477 320 q 478 357 465 392 q 452 426 430 452 q 407 478 376 494 q 346 510 313 509 q 279 510 249 494 q 219 478 196 452 q 174 426 161 392 q 148 357 149 320 z"},"C":{"x_min":0,"x_max":518,"ha":518,"o":"m 504 47 q 467 24 425 12 q 383 -1 338 1 q 274 -1 216 25 q 157 51 112 96 q 68 140 42 198 q 17 257 19 321 q 17 385 42 444 q 68 502 112 546 q 157 590 216 616 q 274 642 338 640 q 380 642 420 630 q 460 619 496 599 l 454 463 q 452 465 446 470 q 439 474 437 476 q 392 505 338 504 q 301 505 268 490 q 234 476 208 450 q 183 425 168 392 q 154 358 155 321 q 154 284 168 250 q 183 216 208 190 q 234 165 268 150 q 301 136 338 137 q 369 136 398 146 q 427 157 450 175 z"},"W":{"x_min":0,"x_max":833,"ha":833,"o":"m 671 640 l 808 640 l 676 0 l 483 0 l 416 347 l 348 0 l 156 0 l 25 640 l 162 640 l 251 206 l 335 640 l 496 640 l 581 203 l 671 640 z"},"A":{"x_min":0,"x_max":630,"ha":630,"o":"m 431 640 l 599 0 l 459 0 l 421 143 l 206 143 l 169 0 l 29 0 l 196 640 z m 243 279 l 386 279 l 313 553 l 242 279 z"},"f":{"x_min":0,"x_max":476,"ha":476,"o":"m 438 640 l 438 505 l 175 505 l 175 395 l 435 395 l 435 260 l 175 260 l 175 0 l 41 0 l 41 395 l 41 640 z"},"Q":{"x_min":0,"x_max":672,"ha":672,"o":"m 632 320 q 633 285 626 250 q 619 216 604 184 q 589 151 568 122 q 546 92 519 69 q 547 55 575 44 q 603 32 630 24 l 598 -103 q 597 -103 596 -102 q 595 -102 594 -102 q 529 -83 475 -56 q 421 -30 369 2 q 361 1 352 0 q 344 0 336 0 q 270 0 214 28 q 159 56 120 102 q 80 148 59 205 q 38 262 40 320 q 38 378 59 435 q 80 492 120 538 q 159 584 214 612 q 270 640 336 640 q 402 640 458 612 q 513 584 552 538 q 592 492 613 435 q 634 378 632 320 z m 172 320 q 171 283 184 248 q 197 214 220 188 q 242 162 272 146 q 303 130 336 131 q 369 130 400 146 q 430 162 452 188 q 475 214 488 248 q 501 283 500 320 q 501 357 488 392 q 475 426 452 452 q 430 478 400 494 q 369 510 336 509 q 303 510 272 494 q 242 478 220 452 q 197 426 184 392 q 171 357 172 320 z"},"w":{"x_min":0,"x_max":833,"ha":833,"o":"m 671 640 l 808 640 l 676 0 l 483 0 l 416 347 l 348 0 l 156 0 l 25 640 l 162 640 l 251 206 l 335 640 l 496 640 l 581 203 l 671 640 z"},"-":{"x_min":0,"x_max":486,"ha":486,"o":"m 447 389 l 447 252 l 39 252 l 39 389 z"},"E":{"x_min":0,"x_max":476,"ha":476,"o":"m 438 0 l 41 0 l 41 640 l 438 640 l 438 505 l 175 505 l 175 396 l 435 396 l 435 260 l 175 260 l 175 134 l 438 134 z"},"s":{"x_min":0,"x_max":524,"ha":524,"o":"m 299 388 q 336 389 370 374 q 404 358 430 331 q 455 304 470 269 q 485 234 484 195 q 485 156 470 120 q 455 85 430 58 q 404 32 370 16 q 336 1 299 2 l 40 2 l 40 136 l 299 136 q 322 135 339 153 q 356 171 355 195 q 356 218 338 236 q 321 254 299 254 l 223 254 q 186 253 152 268 q 118 284 92 311 q 67 338 52 373 q 37 408 38 447 q 37 486 52 521 q 67 556 92 583 q 118 610 152 626 q 186 641 223 640 l 436 640 l 436 506 l 223 506 q 212 506 202 502 q 191 497 184 488 q 176 480 172 470 q 167 459 167 447 q 166 423 183 405 q 200 387 223 388 l 299 388 z"},"l":{"x_min":0,"x_max":485,"ha":485,"o":"m 447 0 l 174 0 l 174 0 l 39 0 l 39 640 l 174 640 l 174 135 l 447 135 z"},"e":{"x_min":0,"x_max":476,"ha":476,"o":"m 438 0 l 41 0 l 41 640 l 438 640 l 438 505 l 175 505 l 175 396 l 435 396 l 435 260 l 175 260 l 175 134 l 438 134 z"},"b":{"x_min":0,"x_max":568,"ha":568,"o":"m 483 326 q 511 300 527 264 q 543 229 542 191 q 543 153 528 118 q 512 83 485 57 q 458 31 422 16 q 387 0 348 1 l 42 1 l 41 313 l 42 640 l 330 640 q 369 641 404 625 q 439 609 466 582 q 493 555 508 520 q 524 484 523 445 q 524 412 514 382 q 503 352 483 326 z m 177 249 l 177 133 l 348 133 q 372 132 390 150 q 408 168 407 191 q 408 214 390 232 q 372 249 348 249 z m 177 385 l 329 385 q 353 384 371 402 q 389 421 388 445 q 389 468 371 486 q 353 505 330 504 l 177 505 z"},"m":{"x_min":0,"x_max":776,"ha":776,"o":"m 736 0 l 601 0 l 582 460 l 462 0 l 322 0 l 195 487 l 174 0 l 39 0 l 66 640 l 294 640 l 392 265 l 490 640 l 710 640 z"},"n":{"x_min":0,"x_max":612,"ha":612,"o":"m 437 640 l 572 640 l 572 0 l 392 0 l 176 465 l 176 0 l 40 0 l 40 640 l 243 640 l 437 225 l 437 640 z"},"h":{"x_min":0,"x_max":588,"ha":588,"o":"m 412 640 l 547 640 l 547 0 l 412 0 l 412 260 l 175 260 l 175 0 l 41 0 l 41 640 l 175 640 l 175 395 l 412 395 l 412 640 z"},"z":{"x_min":0,"x_max":536,"ha":536,"o":"m 496 1 l 39 1 l 39 137 l 39 137 l 39 137 l 308 503 l 38 503 l 38 640 l 479 640 l 479 503 l 479 503 l 479 503 l 209 137 l 496 137 z"},"B":{"x_min":0,"x_max":568,"ha":568,"o":"m 483 326 q 511 300 527 264 q 543 229 542 191 q 543 153 528 118 q 512 83 485 57 q 458 31 422 16 q 387 0 348 1 l 42 1 l 41 313 l 42 640 l 330 640 q 369 641 404 625 q 439 609 466 582 q 493 555 508 520 q 524 484 523 445 q 524 412 514 382 q 503 352 483 326 z m 177 249 l 177 133 l 348 133 q 372 132 390 150 q 408 168 407 191 q 408 214 390 232 q 372 249 348 249 z m 177 385 l 329 385 q 353 384 371 402 q 389 421 388 445 q 389 468 371 486 q 353 505 330 504 l 177 505 z"},"K":{"x_min":0,"x_max":582,"ha":582,"o":"m 401 0 l 274 242 l 174 96 l 174 -1 l 39 -1 l 39 640 l 174 640 l 174 640 l 174 336 l 382 639 l 546 639 l 361 368 l 553 0 z"},"R":{"x_min":0,"x_max":557,"ha":557,"o":"m 519 22 q 520 16 520 10 q 520 5 520 0 l 385 0 q 385 62 364 122 q 342 182 306 224 l 175 224 l 175 0 l 40 0 l 40 639 l 328 639 q 367 640 402 624 q 438 607 465 578 q 492 550 508 512 q 523 474 522 432 q 523 382 501 338 q 479 294 443 265 q 480 208 498 146 q 515 85 519 22 z m 328 368 q 340 368 351 373 q 362 378 370 387 q 378 396 382 408 q 387 419 387 432 q 388 457 370 476 q 352 496 328 495 l 175 495 l 175 368 z"},"T":{"x_min":0,"x_max":563,"ha":563,"o":"m 523 492 l 335 492 l 335 0 l 203 0 l 203 492 l 40 492 l 40 640 l 523 640 z"},"P":{"x_min":0,"x_max":560,"ha":560,"o":"m 329 640 q 368 641 403 624 q 438 607 465 578 q 492 550 508 512 q 523 474 522 432 q 523 390 508 352 q 492 314 465 285 q 438 256 402 240 q 367 223 328 224 l 175 224 l 175 0 l 40 0 l 40 640 z m 328 368 q 340 368 351 373 q 362 378 370 387 q 378 396 382 408 q 387 419 387 432 q 387 444 382 456 q 378 467 370 476 q 362 485 352 490 q 341 495 329 495 l 175 495 l 175 368 z"},"t":{"x_min":0,"x_max":563,"ha":563,"o":"m 523 492 l 335 492 l 335 0 l 203 0 l 203 492 l 40 492 l 40 640 l 523 640 z"},"M":{"x_min":0,"x_max":776,"ha":776,"o":"m 736 0 l 601 0 l 582 460 l 462 0 l 322 0 l 195 487 l 174 0 l 39 0 l 66 640 l 294 640 l 392 265 l 490 640 l 710 640 z"},"g":{"x_min":0,"x_max":608,"ha":608,"o":"m 567 0 l 433 0 l 433 10 q 395 1 359 2 q 295 0 236 26 q 178 51 134 96 q 90 140 64 198 q 38 257 40 321 q 38 385 64 444 q 90 502 134 546 q 178 590 236 616 q 295 641 359 640 q 401 641 441 630 q 481 619 516 599 l 475 463 q 473 465 472 466 q 471 466 467 469 q 420 506 359 504 q 322 505 288 490 q 255 476 230 450 q 204 425 190 392 q 175 358 176 321 q 175 284 190 250 q 204 217 230 192 q 255 166 288 151 q 322 136 359 137 q 400 137 433 153 l 433 237 l 333 237 l 333 372 l 567 372 z"},"j":{"x_min":0,"x_max":395,"ha":395,"o":"m 361 201 q 362 186 359 167 q 356 148 350 132 q 339 97 312 68 q 286 38 254 24 q 222 8 190 4 q 158 0 131 0 l 33 0 l 33 138 l 131 138 q 173 138 194 148 q 205 153 210 159 q 215 165 220 176 q 222 183 222 187 q 223 191 223 201 l 223 640 l 361 640 l 361 201 z"},"i":{"x_min":0,"x_max":204,"ha":204,"o":"m 170 0 l 34 0 l 34 640 l 170 640 z"},"y":{"x_min":0,"x_max":587,"ha":587,"o":"m 563 640 l 368 252 l 368 0 l 234 0 l 234 223 l 234 223 l 25 640 l 175 640 l 294 402 l 413 640 z"},"p":{"x_min":0,"x_max":560,"ha":560,"o":"m 329 640 q 368 641 403 624 q 438 607 465 578 q 492 550 508 512 q 523 474 522 432 q 523 390 508 352 q 492 314 465 285 q 438 256 402 240 q 367 223 328 224 l 175 224 l 175 0 l 40 0 l 40 640 z m 328 368 q 340 368 351 373 q 362 378 370 387 q 378 396 382 408 q 387 419 387 432 q 387 444 382 456 q 378 467 370 476 q 362 485 352 490 q 341 495 329 495 l 175 495 l 175 368 z"},"X":{"x_min":0,"x_max":641,"ha":641,"o":"m 601 0 l 442 0 l 316 199 l 191 0 l 31 0 l 236 326 l 39 640 l 198 640 l 316 452 l 434 640 l 594 640 l 396 325 z"},"Y":{"x_min":0,"x_max":587,"ha":587,"o":"m 563 640 l 368 252 l 368 0 l 234 0 l 234 223 l 234 223 l 25 640 l 175 640 l 294 402 l 413 640 z"},"c":{"x_min":0,"x_max":518,"ha":518,"o":"m 504 47 q 467 24 425 12 q 383 -1 338 1 q 274 -1 216 25 q 157 51 112 96 q 68 140 42 198 q 17 257 19 321 q 17 385 42 444 q 68 502 112 546 q 157 590 216 616 q 274 642 338 640 q 380 642 420 630 q 460 619 496 599 l 454 463 q 452 465 446 470 q 439 474 437 476 q 392 505 338 504 q 301 505 268 490 q 234 476 208 450 q 183 425 168 392 q 154 358 155 321 q 154 284 168 250 q 183 216 208 190 q 234 165 268 150 q 301 136 338 137 q 369 136 398 146 q 427 157 450 175 z"},"r":{"x_min":0,"x_max":557,"ha":557,"o":"m 519 22 q 520 16 520 10 q 520 5 520 0 l 385 0 q 385 62 364 122 q 342 182 306 224 l 175 224 l 175 0 l 40 0 l 40 639 l 328 639 q 367 640 402 624 q 438 607 465 578 q 492 550 508 512 q 523 474 522 432 q 523 382 501 338 q 479 294 443 265 q 480 208 498 146 q 515 85 519 22 z m 328 368 q 340 368 351 373 q 362 378 370 387 q 378 396 382 408 q 387 419 387 432 q 388 457 370 476 q 352 496 328 495 l 175 495 l 175 368 z"}," ":{"x_min":0,"x_max":300,"ha":300,"o":""},"I":{"x_min":0,"x_max":204,"ha":204,"o":"m 170 0 l 34 0 l 34 640 l 170 640 z"},"H":{"x_min":0,"x_max":588,"ha":588,"o":"m 547 640 l 547 0 l 412 0 l 412 260 l 175 260 l 175 0 l 41 0 l 41 640 l 175 640 l 175 395 l 412 395 l 412 640 z"},"D":{"x_min":0,"x_max":611,"ha":611,"o":"m 223 641 q 286 643 348 620 q 410 597 460 554 q 510 512 540 452 q 571 392 571 320 q 571 248 539 188 q 507 129 456 86 q 405 44 342 21 q 278 -2 215 0 l 42 0 l 42 641 z m 436 320 q 437 358 419 392 q 401 426 372 452 q 342 477 303 492 q 264 506 223 505 l 179 505 l 179 136 l 223 136 q 264 135 303 150 q 342 164 372 189 q 401 214 419 248 q 437 282 436 320 z"},"F":{"x_min":0,"x_max":476,"ha":476,"o":"m 438 640 l 438 505 l 175 505 l 175 395 l 435 395 l 435 260 l 175 260 l 175 0 l 41 0 l 41 395 l 41 640 z"},"k":{"x_min":0,"x_max":582,"ha":582,"o":"m 401 0 l 274 242 l 174 96 l 174 -1 l 39 -1 l 39 640 l 174 640 l 174 640 l 174 336 l 382 639 l 546 639 l 361 368 l 553 0 z"},"u":{"x_min":0,"x_max":608,"ha":608,"o":"m 570 640 l 569 280 q 569 229 550 179 q 531 129 496 90 q 461 50 412 25 q 363 0 304 0 q 245 0 196 25 q 147 50 112 90 q 77 129 58 179 q 39 229 39 280 l 39 640 l 174 640 l 175 286 q 174 256 184 229 q 195 202 213 181 q 231 160 254 148 q 278 135 304 136 q 330 135 354 148 q 378 160 396 181 q 414 202 424 229 q 435 256 434 286 l 434 640 z"},"U":{"x_min":0,"x_max":608,"ha":608,"o":"m 570 640 l 569 280 q 569 229 550 179 q 531 129 496 90 q 461 50 412 25 q 363 0 304 0 q 245 0 196 25 q 147 50 112 90 q 77 129 58 179 q 39 229 39 280 l 39 640 l 174 640 l 175 286 q 174 256 184 229 q 195 202 213 181 q 231 160 254 148 q 278 135 304 136 q 330 135 354 148 q 378 160 396 181 q 414 202 424 229 q 435 256 434 286 l 434 640 z"},"o":{"x_min":0,"x_max":669,"ha":669,"o":"m 335 640 q 401 640 456 612 q 511 584 550 538 q 590 492 611 435 q 632 378 630 320 q 632 263 611 206 q 590 148 550 102 q 511 57 456 28 q 401 0 335 0 q 269 0 214 28 q 158 57 118 102 q 79 148 58 206 q 37 263 39 320 q 37 378 58 435 q 79 492 118 538 q 158 584 214 612 q 269 640 335 640 z m 171 320 q 170 283 183 248 q 196 214 218 188 q 241 162 271 146 q 301 131 335 132 q 368 131 398 146 q 429 162 452 188 q 474 214 487 248 q 500 283 499 320 q 500 357 487 392 q 474 426 452 452 q 429 478 398 494 q 368 510 335 509 q 301 510 271 494 q 241 478 218 452 q 196 426 183 392 q 170 357 171 320 z"},"N":{"x_min":0,"x_max":612,"ha":612,"o":"m 437 640 l 572 640 l 572 0 l 392 0 l 176 465 l 176 0 l 40 0 l 40 640 l 243 640 l 437 225 l 437 640 z"},"G":{"x_min":0,"x_max":608,"ha":608,"o":"m 567 0 l 433 0 l 433 10 q 395 1 359 2 q 295 0 236 26 q 178 51 134 96 q 90 140 64 198 q 38 257 40 321 q 38 385 64 444 q 90 502 134 546 q 178 590 236 616 q 295 641 359 640 q 401 641 441 630 q 481 619 516 599 l 475 463 q 473 465 472 466 q 471 466 467 469 q 420 506 359 504 q 322 505 288 490 q 255 476 230 450 q 204 425 190 392 q 175 358 176 321 q 175 284 190 250 q 204 217 230 192 q 255 166 288 151 q 322 136 359 137 q 400 137 433 153 l 433 237 l 333 237 l 333 372 l 567 372 z"},"q":{"x_min":0,"x_max":672,"ha":672,"o":"m 632 320 q 633 285 626 250 q 619 216 604 184 q 589 151 568 122 q 546 92 519 69 q 547 55 575 44 q 603 32 630 24 l 598 -103 q 597 -103 596 -102 q 595 -102 594 -102 q 529 -83 475 -56 q 421 -30 369 2 q 361 1 352 0 q 344 0 336 0 q 270 0 214 28 q 159 56 120 102 q 80 148 59 205 q 38 262 40 320 q 38 378 59 435 q 80 492 120 538 q 159 584 214 612 q 270 640 336 640 q 402 640 458 612 q 513 584 552 538 q 592 492 613 435 q 634 378 632 320 z m 172 320 q 171 283 184 248 q 197 214 220 188 q 242 162 272 146 q 303 130 336 131 q 369 130 400 146 q 430 162 452 188 q 475 214 488 248 q 501 283 500 320 q 501 357 488 392 q 475 426 452 452 q 430 478 400 494 q 369 510 336 509 q 303 510 272 494 q 242 478 220 452 q 197 426 184 392 q 171 357 172 320 z"},"d":{"x_min":0,"x_max":611,"ha":611,"o":"m 223 641 q 286 643 348 620 q 410 597 460 554 q 510 512 540 452 q 571 392 571 320 q 571 248 539 188 q 507 129 456 86 q 405 44 342 21 q 278 -2 215 0 l 42 0 l 42 641 z m 436 320 q 437 358 419 392 q 401 426 372 452 q 342 477 303 492 q 264 506 223 505 l 179 505 l 179 136 l 223 136 q 264 135 303 150 q 342 164 372 189 q 401 214 419 248 q 437 282 436 320 z"}}}
